<?xml version="1.0" encoding="utf-8"?>
<!-- Svg Vector Icons : http://www.onlinewebfonts.com/icon -->
<!DOCTYPE svg PUBLIC "-//W3C//DTD SVG 1.1//EN" "http://www.w3.org/Graphics/SVG/1.1/DTD/svg11.dtd">
<svg version="1.1" xmlns="http://www.w3.org/2000/svg" xmlns:xlink="http://www.w3.org/1999/xlink" x="0px" y="0px" viewBox="0 0 1000 1000" enable-background="new 0 0 1000 1000" xml:space="preserve">
<metadata> Svg Vector Icons : http://www.onlinewebfonts.com/icon </metadata>
<g><g transform="translate(0.000000,512.000000) scale(0.100000,-0.100000)"><path d="M4530.1,5007.9C3375.4,4889,2341.7,4400,1530.4,3588.6C751.6,2809.9,287.5,1860.5,124.4,723.1c-32.6-226.3-32.6-982,0-1208.3c163-1137.4,629.1-2086.8,1405.9-2865.5c776.8-776.8,1730-1244.8,2865.5-1405.9c226.3-32.6,982-32.6,1208.3,0c939.8,134.3,1779.9,491,2474.2,1053c987.8,797.9,1611.1,1916.1,1797.2,3218.4c32.6,226.3,32.6,982,0,1208.3c-161.1,1135.5-629.1,2088.7-1405.9,2865.5c-759.5,759.5-1687.8,1223.7-2779.2,1392.5C5448.8,5017.5,4775.6,5034.8,4530.1,5007.9z M4246.2,2434c115.1-42.2,224.4-138.1,283.9-245.5l57.5-103.6V119V-1847l-55.6-101.6c-178.4-320.3-598.4-368.3-847.8-95.9c-140,151.5-132.4,23-132.4,2163.5c0,1591.9,3.8,1941,26.9,2002.4c36.4,103.6,164.9,237.8,280,291.5C3966.2,2464.7,4138.8,2472.4,4246.2,2434z M6141.2,2412.9c115.1-53.7,243.6-188,280-291.5c23-61.4,26.9-412.4,26.9-2012c0-2163.5,11.5-1994.7-138.1-2157.7c-239.7-268.5-665.5-218.7-842,99.7l-55.6,101.6V119v1965.9l57.5,103.6c99.7,180.3,245.5,266.6,460.3,268.5C6012.7,2458.9,6072.2,2445.5,6141.2,2412.9z"/></g></g>
</svg>